# AST/ASF file generated using VICON BodyLanguage
# -----------------------------------------------
:version 1.10
:name VICON
:units
  mass 1.0
  length 0.45
  angle deg
:documentation
   .ast/.asf automatically generated from VICON data using
   VICON BodyBuilder and BodyLanguage model FoxedUp or BRILLIANT.MOD
:root
   order TX TY TZ RX RY RZ
   axis XYZ
   position 0 0 0  
   orientation 0 0 0 
:bonedata
  begin
     id 1 
     name lhipjoint
     direction 0.682418 -0.694059 0.22932 
     length 2.25561 
     axis 0 0 0  XYZ
  end
  begin
     id 2 
     name lfemur
     direction 0.34202 -0.939693 0  
     length 6.96448  
     axis 0 0 20  XYZ
    dof rx ry rz
    limits (-160.0 20.0)
           (-70.0 70.0)
           (-60.0 70.0)
  end
  begin
     id 3 
     name ltibia
     direction 0.34202 -0.939693 0   
     length 6.88553   
     axis 0 0 20   XYZ
    dof rx
    limits (-10.0 170.0)
  end
  begin
     id 4 
     name lfoot
     direction 0.0723587 -0.198804 0.977364   
     length 1.88518   
     axis -90 7.62852e-016 20   XYZ
    dof rx rz
    limits (-45.0 90.0)
           (-70.0 20.0)
  end
  begin
     id 5 
     name ltoes
     direction 1.53558e-011 -4.21962e-011 1   
     length 0.952124   
     axis -90 7.62852e-016 20   XYZ
    dof rx
    limits (-90.0 20.0)
  end
  begin
     id 6 
     name rhipjoint
     direction -0.657603 -0.71533 0.236348   
     length 2.18854  
     axis 0 0 0  XYZ 
  end
  begin
     id 7 
     name rfemur
     direction -0.34202 -0.939693 0   
     length 6.86686   
     axis 0 0 -20   XYZ
    dof rx ry rz
    limits (-160.0 20.0)
           (-70.0 70.0)
           (-70.0 60.0)
  end
  begin
     id 8 
     name rtibia
     direction -0.34202 -0.939693 0   
     length 6.59503   
     axis 0 0 -20   XYZ
    dof rx
    limits (-10.0 170.0)
 end
 begin
     id 9 
     name rfoot
     direction -0.101977 -0.280179 0.954516   
     length 1.93723  
     axis -90 -7.62852e-016 -20   XYZ
    dof rx rz
    limits (-45.0 90.0)
           (-20.0 70.0)
  end
  begin
     id 10 
     name rtoes
     direction -1.53564e-011 -4.21897e-011 1   
     length 0.970315   
     axis -90 -7.62852e-016 -20   XYZ
    dof rx
    limits (-90.0 20.0)
  end
  begin
     id 11 
     name lowerback
     direction -0.0339559 0.999421 -0.00235966   
     length 1.88543   
     axis 0 0 0   XYZ
    dof rx ry rz
    limits (-20.0 45.0)
           (-30.0 30.0)
           (-30.0 30.0)
  end
  begin
     id 12 
     name upperback
     direction 0.00401003 0.999739 0.0224689   
     length 1.8856   
     axis 0 0 0   XYZ
    dof rx ry rz
    limits (-20.0 45.0)
           (-30.0 30.0)
           (-30.0 30.0)
  end
  begin
     id 13 
     name thorax
     direction 0.0198619 0.999546 0.0226536   
     length 1.88352   
     axis 0 0 0   XYZ
    dof rx ry rz
    limits (-20.0 45.0)
           (-30.0 30.0)
           (-30.0 30.0)
  end
  begin
     id 14 
     name lowerneck
     direction -0.0461848 0.998632 0.0245198   
     length 1.34895   
     axis 0 0 0   XYZ
    dof rx ry rz
    limits (-20.0 45.0)
           (-30.0 30.0)
           (-30.0 30.0)
  end
  begin
     id 15 
     name upperneck
     direction -0.0180627 0.994724 -0.100984   
     length 1.35214   
     axis 0 0 0   XYZ
    dof rx ry rz
    limits (-20.0 45.0)
           (-30.0 30.0)
           (-30.0 30.0)
  end
  begin
     id 16
     name head
     direction -0.00374772 0.999293 -0.037403  
     length 1.3568  
     axis 0 0 0   XYZ
    dof rx ry rz
    limits (-20.0 45.0)
           (-30.0 30.0)
           (-30.0 30.0)
  end
  begin
     id 17 
     name lclavicle
     direction 0.971773 0.191119 0.138311  
     length 2.84954  
     axis 0 0 0   XYZ
    dof ry rz
    limits (-20.0 10.0)
           (0.0 20.0)
  end
  begin
     id 18 
     name lhumerus
     direction 1 -4.4897e-011 -2.43761e-027   
     length 4.40919   
     axis 180 -30 -90   XYZ
    dof rx ry rz
    limits (-60.0 90.0)
           (-90.0 90.0)
           (-90.0 90.0)
  end
  begin
     id 19
     name lradius
     direction 1 -4.4896e-011 -9.1621e-027   
     length 3.03857   
     axis 180 -30 -90   XYZ
    dof rx
    limits (-10.0 170.0)
  end
  begin
     id 20
     name lwrist
     direction 1 -4.4896e-011 -1.41363e-026   
     length 1.51928   
     axis 1.07133e-014 90 90   XYZ
    dof ry
    limits (-180.0 0.0)
 end
  begin
     id 21 
     name lhand
     direction 1 -4.48978e-011 -2.82725e-026   
     length 0.523208   
     axis 1.80403e-014 90 90   XYZ
    dof rx rz
    limits (-90.0 90.0)
           (-45.0 45.0)
  end
  begin
     id 22 
     name lfingers
     direction 1 -4.48977e-011 -5.6545e-026   
     length 0.421824   
     axis 3.60806e-014 90 90   XYZ
    dof rx
    limits (0.0 90.0)
  end
  begin
     id 23
     name lthumb
     direction 0.707107 -6.34962e-011 0.707107   
     length 0.605657   
     axis -90 45 2.85299e-015   XYZ
    dof rx rz
    limits (-45.0 45.0)
           (-45.0 45.0)
  end
  begin
     id 24 
     name rclavicle
     direction -0.957247 0.24311 0.156766   
     length 3.12406  
     axis 0 0 0   XYZ 
    dof ry rz
    limits (-10.0 20.0)
           (-20.0 0.0)
  end
  begin
     id 25 
     name rhumerus
     direction -1 -4.48964e-011 -1.70632e-027  
     length 4.61969   
     axis 180 30 90   XYZ
    dof rx ry rz
    limits (-90.0 60.0)
           (-90.0 90.0)
           (-90.0 90.0)
  end
  begin
     id 26 
     name rradius
     direction -1 -4.48966e-011 -6.60395e-027   
     length 3.09382   
     axis 180 30 90   XYZ
    dof rx
    limits (-10.0 170.0)
  end
  begin
     id 27 
     name rwrist
     direction -1 -4.48963e-011 -1.41363e-026   
     length 1.54691   
     axis 1.07133e-014 -90 -90   XYZ
    dof ry
    limits (-180.0 0.0)
  end
  begin
     id 28
     name rhand
     direction -1 -4.49013e-011 -2.82725e-026   
     length 0.500896   
     axis 1.80403e-014 -90 -90   XYZ
    dof rx rz
    limits (-90.0 90.0)
           (-45.0 45.0)
  end
  begin
     id 29
     name rfingers
     direction -1 -4.48902e-011 -5.6545e-026   
     length 0.403835   
     axis 3.60806e-014 -90 -90   XYZ
    dof rx
    limits (0.0 90.0)
  end
  begin
     id 30
     name rthumb
     direction -0.707107 -6.34953e-011 0.707107   
     length 0.579829   
     axis -90 -45 -2.85299e-015   XYZ
    dof rx rz
    limits (-45.0 45.0)
           (-45.0 45.0)
  end
:hierarchy
  begin
    root lhipjoint rhipjoint lowerback
    lhipjoint lfemur
    lfemur ltibia
    ltibia lfoot
    lfoot ltoes
    rhipjoint rfemur
    rfemur rtibia
    rtibia rfoot
    rfoot rtoes
    lowerback upperback
    upperback thorax
    thorax lowerneck lclavicle rclavicle
    lowerneck upperneck
    upperneck head
    lclavicle lhumerus
    lhumerus lradius
    lradius lwrist
    lwrist lhand lthumb
    lhand lfingers
    rclavicle rhumerus
    rhumerus rradius
    rradius rwrist
    rwrist rhand rthumb
    rhand rfingers
  end

#!OML:ASF E:\madness\Project 1\Capture day 1\Session 1\Female1.ASF
:FULLY-SPECIFIED
:DEGREES
983
root 29.9466 15.4378 -3.36485 -321.112 -81.3954 327.82
lowerback -0.548293 5.00606 -2.95601
upperback -1.54088 6.67746 1.00703
thorax -1.73513 3.38685 2.58531
lowerneck 5.90187 11.5042 9.42909
upperneck 6.66842 15.9843 -6.57776
head 2.59538 8.10329 -3.55904
rclavicle 1.16289e-014 5.56597e-015
rhumerus -49.4179 28.3746 -74.7256
rradius 108.465
rwrist -14.6558
rhand -18.1421 -34.3783
rfingers 7.12502
rthumb 8.1332 -64.2018
lclavicle 1.16289e-014 5.56597e-015
lhumerus -52.5996 -28.9052 51.2186
lradius 109.143
lwrist -15.7445
lhand -53.0357 1.23576
lfingers 7.12502
lthumb -25.4999 29.5495
rfemur -5.17842 -4.36886 25.6048
rtibia 29.1624
rfoot -30.8528 -27.2504
rtoes 5.48109
lfemur -37.0532 -13.6202 0.727702
ltibia 48.9623
lfoot -17.4929 -10.1607
ltoes 1.01575
984
root 29.914 15.4306 -3.34302 -320.091 -81.6572 326.707
lowerback -0.690794 5.26313 -2.75055
upperback -1.89328 7.01736 0.852054
thorax -1.99752 3.55877 2.30046
lowerneck 6.5741 11.8418 9.9017
upperneck 6.76248 16.5344 -6.86469
head 2.36717 8.38012 -3.37827
rclavicle 7.92157e-014 -1.27222e-014
rhumerus -50.8056 27.7629 -75.3923
rradius 108.67
rwrist -14.8467
rhand -16.5116 -36.6343
rfingers 7.12502
rthumb 9.7066 -66.3906
lclavicle 7.92157e-014 -1.27222e-014
lhumerus -52.9276 -29.8952 51.4199
lradius 109.204
lwrist -15.5905
lhand -53.1988 2.28971
lfingers 7.12502
lthumb -25.6562 30.581
rfemur -4.95966 -4.03597 25.5155
rtibia 29.1875
rfoot -30.9626 -27.3952
rtoes 5.45594
lfemur -36.0551 -14.2486 0.690567
ltibia 47.4482
lfoot -19.8916 -5.07527
ltoes -11.2101
985
root 29.8813 15.4272 -3.32053 -318.849 -81.9106 325.465
lowerback -0.846545 5.46366 -2.55147
upperback -2.26956 7.28025 0.68584
thorax -2.26824 3.69048 2.00996
lowerneck 6.80261 12.3008 10.1728
upperneck 7.1151 17.1742 -6.59305
head 2.49381 8.71064 -3.30883
rclavicle -8.67944e-014 -4.37326e-015
rhumerus -52.0305 27.3703 -76.1439
rradius 108.807
rwrist -15.1613
rhand -13.8975 -40.1466
rfingers 7.12502
rthumb 12.2279 -69.7692
lclavicle -8.67944e-014 -4.37326e-015
lhumerus -53.2312 -30.6491 51.4266
lradius 109.199
lwrist -15.1824
lhand -53.0388 2.10748
lfingers 7.12502
lthumb -25.5029 30.4208
rfemur -4.85294 -3.68443 25.4354
rtibia 29.2322
rfoot -31.0469 -27.4996
rtoes 5.31808
lfemur -35.121 -14.7685 0.680764
ltibia 45.9467
lfoot -19.6417 -1.36647
ltoes -13.1043
986
root 29.8493 15.4247 -3.29339 -318.694 -82.1586 325.486
lowerback -1.26828 5.62734 -2.50865
upperback -2.52307 7.50005 0.540991
thorax -2.28186 3.79922 1.86387
lowerneck 6.55409 12.7703 10.305
upperneck 7.63601 17.7875 -6.2996
head 2.72927 9.01826 -3.17378
rclavicle -5.86663e-014 5.56597e-015
rhumerus -52.9535 27.0451 -76.6452
rradius 108.877
rwrist -15.257
rhand -14.6509 -39.7915
rfingers 7.12502
rthumb 11.5015 -69.4559
lclavicle -5.86663e-014 5.56597e-015
lhumerus -53.2537 -31.1717 51.4942
lradius 109.097
lwrist -14.7048
lhand -52.8314 1.76959
lfingers 7.12502
lthumb -25.3042 30.1111
rfemur -4.92476 -3.42306 25.1777
rtibia 29.2915
rfoot -31.1407 -27.5405
rtoes 4.9505
lfemur -34.4043 -15.206 0.542819
ltibia 44.7281
lfoot -20.1371 0.234557
ltoes -12.8681
987
root 29.824 15.4223 -3.2651 -319.007 -82.3189 326.071
lowerback -1.78516 5.71268 -2.45496
upperback -2.68106 7.61901 0.458769
thorax -2.14468 3.85571 1.79608
lowerneck 6.02121 13.2663 10.2231
upperneck 8.15508 18.403 -5.99875
head 2.9877 9.31788 -2.98456
rclavicle -2.65378e-014 7.15625e-015
rhumerus -53.6374 26.7811 -76.8572
rradius 108.953
rwrist -15.0524
rhand -17.9125 -36.7139
rfingers 7.12502
rthumb 8.35481 -66.5287
lclavicle -2.65378e-014 7.15625e-015
lhumerus -53.1886 -31.4293 51.6851
lradius 108.928
lwrist -14.2671
lhand -52.5219 1.84538
lfingers 7.12502
lthumb -25.0077 30.2285
rfemur -5.15314 -3.20939 24.9158
rtibia 29.4112
rfoot -31.2741 -27.5583
rtoes 4.86763
lfemur -34.0319 -15.6388 0.429574
ltibia 43.8959
lfoot -21.5595 0.120124
ltoes -12.611
988
root 29.7941 15.4151 -3.24298 -321.063 -82.1906 328.226
lowerback -2.07432 5.69246 -2.42974
upperback -2.82243 7.59257 0.371008
thorax -2.11268 3.84084 1.71681
lowerneck 5.74826 13.6878 10.2431
upperneck 8.38484 18.9496 -5.88846
head 3.13739 9.58759 -2.89331
rclavicle -3.32592e-014 3.97569e-016
rhumerus -54.4179 26.4141 -77.1418
rradius 109.065
rwrist -14.7193
rhand -14.2956 -38.8613
rfingers 7.12502
rthumb 11.844 -68.5063
lclavicle -3.32592e-014 3.97569e-016
lhumerus -53.0222 -31.6225 51.7827
lradius 108.629
lwrist -13.96
lhand -51.9434 1.76967
lfingers 7.12502
lthumb -24.4532 30.2289
rfemur -5.12408 -3.15064 24.7332
rtibia 29.5579
rfoot -31.7105 -27.6014
rtoes 6.02787
lfemur -33.7768 -16.3497 0.316551
ltibia 43.3514
lfoot -21.5476 -0.687307
ltoes -12.3899
989
root 29.7661 15.4043 -3.22447 -322.926 -82.0274 330.12
lowerback -2.15803 5.77878 -2.37329
upperback -3.03705 7.70155 0.236483
thorax -2.26705 3.89435 1.54409
lowerneck 5.6598 13.9801 10.5112
upperneck 8.64063 19.356 -5.89429
head 3.28914 9.7954 -2.88479
rclavicle -5.30631e-014 -4.77083e-015
rhumerus -55.4763 25.7755 -77.5258
rradius 109.242
rwrist -14.2434
rhand -13.2896 -39.3395
rfingers 7.12502
rthumb 12.814 -68.9262
lclavicle -5.30631e-014 -4.77083e-015
lhumerus -52.5792 -32.0387 51.8592
lradius 108.119
lwrist -13.741
lhand -51.8575 2.04089
lfingers 7.12502
lthumb -24.3709 30.5112
rfemur -5.01872 -3.13486 24.6059
rtibia 29.7054
rfoot -32.2297 -27.5255
rtoes 7.72716
lfemur -33.5893 -16.9924 0.200894
ltibia 42.9933
lfoot -22.5409 0.339571
ltoes -16.0656
990
root 29.7394 15.3949 -3.21151 -324.66 -81.8776 331.834
lowerback -2.21343 5.8529 -2.40133
upperback -3.18925 7.7967 0.172862
thorax -2.39305 3.94311 1.48948
lowerneck 5.89213 14.3787 10.6414
upperneck 8.29953 19.9346 -6.20362
head 3.24114 10.0856 -2.98096
rclavicle -1.27346e-015 -1.66979e-014
rhumerus -56.3997 25.2811 -77.8111
rradius 109.39
rwrist -13.7589
rhand -13.6723 -39.112
rfingers 7.12502
rthumb 12.445 -68.7215
lclavicle -1.27346e-015 -1.66979e-014
lhumerus -52.2055 -32.4752 52.0148
lradius 107.727
lwrist -13.3596
lhand -52.3354 3.10958
lfingers 7.12502
lthumb -24.8289 31.5175
rfemur -4.88843 -3.21118 24.4817
rtibia 29.8779
rfoot -32.6523 -27.4507
rtoes 8.8732
lfemur -33.404 -17.518 0.0383083
ltibia 42.7464
lfoot -22.4587 2.08703
ltoes -18.6783
991
root 29.711 15.3818 -3.19787 -329.163 -81.178 336.299
lowerback -2.33777 5.72908 -2.49685
upperback -3.20528 7.63275 0.0925697
thorax -2.33414 3.86156 1.4745
lowerneck 6.08397 14.6817 10.9236
upperneck 8.1814 20.3919 -6.50313
head 3.2735 10.3191 -3.08689
rclavicle -5.59082e-016 0
rhumerus -57.1889 24.6636 -78.0237
rradius 109.507
rwrist -13.4697
rhand -14.2609 -38.7033
rfingers 7.12502
rthumb 11.8775 -68.3464
lclavicle -5.59082e-016 0
lhumerus -51.6875 -33.0718 51.9945
lradius 107.607
lwrist -12.864
lhand -52.2995 3.67677
lfingers 7.12502
lthumb -24.7945 32.0894
rfemur -4.67308 -3.67143 24.3156
rtibia 30.0857
rfoot -33.3153 -27.5694
rtoes 9.82624
lfemur -33.5714 -18.4705 -0.151547
ltibia 42.6045
lfoot -22.0795 2.90434
ltoes -18.6447
992
root 29.6936 15.3735 -3.18364 -331.581 -80.7938 338.958
lowerback -2.60466 5.81435 -2.54131
upperback -3.31197 7.7473 -0.04098
thorax -2.2886 3.91758 1.38512
lowerneck 5.98452 14.9785 10.9978
upperneck 7.94899 20.8102 -6.84472
head 3.29809 10.5223 -3.16161
rclavicle 7.85821e-014 4.37326e-015
rhumerus -58.1667 23.7779 -78.212
rradius 109.752
rwrist -13.3214
rhand -15.0685 -38.4537
rfingers 7.12502
rthumb 11.0987 -68.1402
lclavicle 7.85821e-014 4.37326e-015
lhumerus -50.8741 -33.7749 51.8559
lradius 107.417
lwrist -12.475
lhand -51.9599 3.27854
lfingers 7.12502
lthumb -24.469 31.7356
rfemur -4.92724 -3.67276 24.1596
rtibia 30.3415
rfoot -33.7956 -27.7777
rtoes 10.678
lfemur -34.0278 -19.036 -0.223434
ltibia 42.5289
lfoot -21.8176 2.80877
ltoes -17.4783
